HIERARCHY
ROOT Hips
{
	OFFSET 0.0000 0.0000 0.0000
	CHANNELS 6 Xposition Yposition Zposition Zrotation Xrotation Yrotation
	JOINT Ab
	{
		OFFSET -0.0000 8.0846 -0.0000
		CHANNELS 3 Zrotation Xrotation Yrotation
		JOINT Chest
		{
			OFFSET -0.0000 25.0068 -0.0000
			CHANNELS 3 Zrotation Xrotation Yrotation
			JOINT Neck
			{
				OFFSET -0.0000 25.0068 0.0000
				CHANNELS 3 Zrotation Xrotation Yrotation
				JOINT Head
				{
					OFFSET -0.0000 10.7556 0.0000
					CHANNELS 3 Zrotation Xrotation Yrotation
					End Site
					{
						OFFSET -0.0000 16.6222 0.0000
					}
				}
			}
			JOINT LeftCollar
			{
				OFFSET -0.0000 25.0068 0.0000
				CHANNELS 3 Zrotation Xrotation Yrotation
				JOINT LeftShoulder
				{
					OFFSET 19.5556 -0.0000 0.0000
					CHANNELS 3 Zrotation Xrotation Yrotation
					JOINT LeftElbow
					{
						OFFSET 27.1828 0.0000 0.0000
						CHANNELS 3 Zrotation Xrotation Yrotation
						JOINT LeftWrist
						{
							OFFSET 23.3157 0.0000 0.0000
							CHANNELS 3 Zrotation Xrotation Yrotation
							End Site
							{
								OFFSET 0.0000 -14.6667 0.0000
							}
						}
					}
				}
			}
			JOINT RightCollar
			{
				OFFSET -0.0000 25.0068 0.0000
				CHANNELS 3 Zrotation Xrotation Yrotation
				JOINT RightShoulder
				{
					OFFSET -19.5556 0.0000 0.0000
					CHANNELS 3 Zrotation Xrotation Yrotation
					JOINT RightElbow
					{
						OFFSET -27.1828 0.0000 0.0000
						CHANNELS 3 Zrotation Xrotation Yrotation
						JOINT RightWrist
						{
							OFFSET -23.3157 0.0000 0.0000
							CHANNELS 3 Zrotation Xrotation Yrotation
							End Site
							{
								OFFSET -0.0000 -14.6667 0.0000
							}
						}
					}
				}
			}
		}
	}
	JOINT LeftHip
	{
		OFFSET 11.7333 0.0000 0.0000
		CHANNELS 3 Zrotation Xrotation Yrotation
		JOINT LeftKnee
		{
			OFFSET -0.0000 -40.8688 0.0000
			CHANNELS 3 Zrotation Xrotation Yrotation
			JOINT LeftAnkle
			{
				OFFSET -0.0000 -44.4337 0.0000
				CHANNELS 3 Zrotation Xrotation Yrotation
				End Site
				{
					OFFSET -0.0000 -4.8889 16.6222
				}
			}
		}
	}
	JOINT RightHip
	{
		OFFSET -11.7333 0.0000 0.0000
		CHANNELS 3 Zrotation Xrotation Yrotation
		JOINT RightKnee
		{
			OFFSET -0.0000 -40.8688 0.0000
			CHANNELS 3 Zrotation Xrotation Yrotation
			JOINT RightAnkle
			{
				OFFSET -0.0000 -44.4337 0.0000
				CHANNELS 3 Zrotation Xrotation Yrotation
				End Site
				{
					OFFSET -0.0000 -4.8889 16.6222
				}
			}
		}
	}
}
MOTION
Frames: 23
Frame Time: 0.010000
-4.8399 88.6737 189.4422 2.4051 359.8248 176.8568 1.3158 359.1426 358.2400 359.2371 11.5331 358.3082 0.6921 348.0325 1.1177 2.3868 14.1296 0.7429 338.7933 358.5430 7.8295 301.3302 31.1754 355.1044 15.3195 354.7182 322.2032 83.8258 1.3771 341.7317 22.1425 359.0741 355.2424 61.3352 44.6469 6.4227 337.0263 354.0969 28.2506 275.1877 353.2968 17.1827 2.2836 358.1030 357.7583 359.3250 10.6484 356.5548 356.8235 351.4037 21.9830 0.2584 351.6354 0.7094 358.8880 19.5727 8.6995 358.1828 344.4127 337.3656 
-4.8464 88.6755 189.4250 2.4026 359.8411 176.8563 1.2995 359.1770 358.2383 359.2363 11.5106 358.3061 0.6498 348.0144 1.0965 2.4124 14.1868 0.7209 338.7882 358.5332 7.8662 301.3252 31.2237 355.1010 15.3972 354.7007 322.2515 83.7409 1.3442 341.7681 22.1496 359.0730 355.2610 61.3448 44.6754 6.3982 336.9841 354.1162 28.2671 275.1781 353.3480 17.2016 2.2767 358.1667 357.7139 359.3296 10.5752 356.5277 356.8631 351.3940 22.0254 0.2471 351.6717 0.7109 358.8978 19.5546 8.6527 358.1621 344.4213 337.4075 
-4.8554 88.6763 189.4181 2.3976 359.8231 176.8641 1.2799 359.1786 358.2329 359.2443 11.5037 358.3007 0.5958 347.9646 1.0597 2.4444 14.2572 0.6832 338.7935 358.5385 7.8333 301.2773 31.0746 355.1569 15.3094 354.7371 322.2459 83.8115 1.3237 341.6665 22.1513 359.0634 355.2583 61.3140 44.7036 6.4253 336.9723 354.1160 28.2565 275.1683 353.3400 17.1559 2.2693 358.0983 357.6315 359.2951 10.6829 356.6159 356.8876 351.3397 22.0270 0.2307 351.6631 0.7416 358.9146 19.5479 8.6063 358.1795 344.4013 337.4178 
-4.8656 88.6766 189.4062 2.3923 359.8110 176.8671 1.2546 359.1814 358.2335 359.2548 11.4983 358.3006 0.5308 347.9237 1.0228 2.4939 14.3217 0.6457 338.7909 358.5278 7.8622 301.2631 31.1723 355.1622 15.4104 354.6968 322.2771 83.7378 1.3176 341.7437 22.1546 359.0738 355.2708 61.2890 44.6921 6.4359 336.9945 354.1377 28.2568 275.1884 353.3215 17.1368 2.2654 358.0687 357.5912 359.2777 10.7273 356.5947 356.8926 351.3057 22.0677 0.2135 351.6631 0.7532 358.9224 19.5406 8.6215 358.1797 344.3801 337.4058 
-4.8779 88.6773 189.3930 2.3837 359.8020 176.8726 1.2147 359.1803 358.2399 359.2806 11.5081 358.3045 0.4575 347.8610 0.9683 2.5505 14.4150 0.5882 338.7853 358.5353 7.8575 301.2459 31.1206 355.1748 15.3655 354.7336 322.2968 83.7996 1.3054 341.7029 22.1475 359.0764 355.2717 61.2656 44.7012 6.4633 336.9764 354.1278 28.2629 275.2089 353.3427 17.1385 2.2509 358.0357 357.5763 359.2599 10.7875 356.6168 356.9125 351.2724 22.0757 0.1870 351.6720 0.7653 358.9424 19.5279 8.6015 358.1953 344.3627 337.4202 
-4.8933 88.6773 189.3832 2.3810 359.7850 176.8858 1.1873 359.1771 358.2444 359.2984 11.5193 358.3077 0.3645 347.7796 0.9015 2.6436 14.5206 0.5147 338.7838 358.5314 7.8541 301.2276 31.1237 355.1763 15.3705 354.7179 322.3073 83.8526 1.3057 341.7276 22.1359 359.0667 355.2611 61.2519 44.7200 6.4929 336.9507 354.1229 28.2601 275.2136 353.3358 17.1426 2.2437 357.9689 357.5201 359.2472 10.8818 356.6066 356.9288 351.2095 22.1054 0.1631 351.6698 0.7542 358.9568 19.5131 8.5659 358.1916 344.3580 337.4665 
-4.9119 88.6778 189.3682 2.3692 359.7825 176.8896 1.1618 359.1929 358.2514 359.2962 11.5124 358.3150 0.2998 347.7271 0.8498 2.7048 14.6075 0.4621 338.7866 358.5175 7.8542 301.1909 31.1197 355.2044 15.3993 354.7134 322.3343 83.7837 1.2780 341.6983 22.1386 359.0718 355.2609 61.2324 44.7382 6.5076 336.9727 354.1397 28.2252 275.2054 353.2573 17.1815 2.2264 357.9505 357.5216 359.2317 10.9287 356.5702 356.9514 351.1769 22.1347 0.1232 351.6889 0.7739 358.9850 19.4926 8.5553 358.3394 344.3279 337.5058 
-4.9324 88.6791 189.3543 2.3573 359.7755 176.8978 1.1381 359.2161 358.2540 359.2945 11.4820 358.3178 0.1959 347.7215 0.7659 2.7915 14.6811 0.3737 338.7808 358.5293 7.8386 301.1618 31.0708 355.2508 15.3289 354.7509 322.3698 83.9449 1.2216 341.7041 22.1436 359.0773 355.2669 61.2167 44.7379 6.5078 337.0167 354.1611 28.1561 275.1199 353.0200 17.3344 2.2101 357.9208 357.5411 359.2158 10.9860 356.5138 356.9815 351.1490 22.1682 0.0791 351.7045 0.7950 359.0239 19.4691 8.5216 358.5975 344.2632 337.5730 
-4.9576 88.6803 189.3420 2.3441 359.7618 176.9090 1.1249 359.2319 358.2455 359.2808 11.4568 358.3102 0.0779 347.7681 0.6501 2.8954 14.7239 0.2538 338.7844 358.5202 7.8340 301.1220 31.0413 355.2946 15.3364 354.7331 322.3585 83.9407 1.2032 341.6963 22.1473 359.0839 355.2808 61.1890 44.7320 6.5189 337.0301 354.1637 28.1653 275.1645 352.9974 17.3798 2.1872 357.8748 357.5742 359.2052 11.0537 356.4802 357.0021 351.1113 22.1615 0.0292 351.7178 0.8240 359.0653 19.4370 8.4743 358.3007 344.2923 337.5103 
-4.9868 88.6818 189.3293 2.3266 359.7440 176.9249 1.1075 359.2464 358.2348 359.2631 11.4294 358.3010 359.9803 347.7100 0.5966 2.9958 14.8371 0.1948 338.7851 358.5247 7.8383 301.0895 30.9904 355.3316 15.3121 354.7611 322.3854 83.9296 1.1529 341.6554 22.1519 359.0866 355.2959 61.1487 44.7350 6.5415 337.0563 354.1540 28.1733 275.1819 352.9684 17.4054 2.1589 357.8239 357.5573 359.1845 11.1239 356.4557 357.0267 351.0714 22.1959 359.9686 351.7288 0.8549 359.1130 19.4020 8.4226 358.6107 344.1670 337.5199 
-5.0205 88.6835 189.3124 2.3074 359.7329 176.9416 1.0884 359.2631 358.2261 359.2435 11.4067 358.2943 359.8305 347.6825 0.5064 3.1703 14.8940 0.1087 338.7824 358.5279 7.8504 301.0691 30.9927 355.3527 15.3596 354.7359 322.3888 83.7450 1.1894 341.6097 22.1561 359.0836 355.3098 61.1036 44.7682 6.5667 337.0057 354.1407 28.1496 275.3378 352.9012 17.2070 2.1259 357.8158 357.5973 359.1798 11.1300 356.3732 357.0487 351.0562 22.2207 359.9047 351.7498 0.8887 359.1600 19.3654 8.3564 358.6070 344.1967 337.6437 
-5.0589 88.6852 189.2967 2.2863 359.7121 176.9712 1.0680 359.2757 358.2128 359.2305 11.3766 358.2832 359.6751 347.5942 0.4255 3.3296 15.0620 0.0019 338.7765 358.5234 7.8632 301.0482 31.0812 355.3750 15.4385 354.7021 322.4280 83.6784 1.1710 341.6635 22.1542 359.0788 355.3151 61.0646 44.8035 6.5871 336.9182 354.1149 28.1096 275.5442 352.7647 16.8727 2.0897 357.7716 357.5910 359.1626 11.1773 356.3412 357.0786 351.0272 22.2306 359.8336 351.7680 0.9319 359.2126 19.3182 8.3010 358.3200 344.2271 337.5970 
-5.0993 88.6872 189.2818 2.2671 359.6867 176.9979 1.0411 359.2813 358.2071 359.2226 11.3512 358.2784 359.5371 347.5127 0.3439 3.4762 15.2159 359.9134 338.7660 358.5361 7.8775 301.0337 31.1273 355.3778 15.4559 354.7097 322.4917 83.6674 1.1110 341.6794 22.1534 359.0902 355.3225 60.9979 44.8292 6.6320 336.9437 354.1426 28.1061 275.5974 352.7370 16.8726 2.0579 357.7125 357.5807 359.1361 11.2456 356.3134 357.1167 350.9960 22.2489 359.7721 351.7783 0.9753 359.2506 19.2750 8.2364 358.3081 344.2123 337.6136 
-5.1441 88.6902 189.2620 2.2505 359.6636 177.0154 0.9968 359.2765 358.2219 359.2360 11.3534 358.2923 359.3622 347.3620 0.2329 3.6499 15.4748 359.7893 338.7576 358.5215 7.8484 300.9833 31.0235 355.4228 15.4269 354.7281 322.4604 83.7096 1.1036 341.6053 22.1600 359.0791 355.2863 60.8740 44.7434 6.7350 336.9155 354.1371 28.1530 275.7519 352.7901 16.5918 2.0224 357.6501 357.6512 359.1302 11.3345 356.2311 357.1398 350.9436 22.2366 359.7133 351.8011 1.0433 359.2879 19.2213 8.1747 358.3580 344.2032 337.6185 
-5.1958 88.6924 189.2390 2.2303 359.6414 177.0424 0.9643 359.2705 358.2243 359.2302 11.3586 358.2953 359.1591 347.2183 0.1061 3.8805 15.7196 359.6423 338.7528 358.5357 7.8084 300.9528 30.9358 355.4598 15.3244 354.7863 322.4826 83.8032 1.0525 341.5168 22.1763 359.0554 355.2309 60.7559 44.6800 6.8234 336.9865 354.1604 28.1999 275.7341 352.7484 16.7153 1.9759 357.5595 357.6381 359.1121 11.4793 356.1985 357.2563 350.8784 22.2722 359.6466 351.8231 1.0940 359.2743 19.1712 8.4335 358.3465 344.3289 337.5304 
-5.2523 88.6949 189.2182 2.2115 359.6129 177.0670 0.9473 359.2781 358.2145 359.2101 11.3218 358.2878 359.3781 347.2926 0.0629 3.2793 15.5727 359.6649 338.7504 358.5265 7.7864 300.8968 30.8628 355.5132 15.2968 354.7858 322.4655 83.8193 1.0425 341.4590 22.1908 359.0534 355.2248 60.6551 44.7165 6.8677 337.1425 354.2088 28.2222 275.6921 352.6559 17.2087 1.9275 357.5415 357.6669 359.1051 11.4685 356.1654 357.3098 350.8819 22.2709 359.5833 351.8342 1.1333 359.2347 19.1253 8.7876 358.4713 344.4075 337.3383 
-5.3113 88.6969 189.2014 2.2000 359.5703 177.0953 0.9259 359.2850 358.1995 359.2048 11.2709 358.2726 2.8502 348.6010 0.2516 355.5729 12.7199 0.4005 338.7417 358.5197 7.8026 300.8593 30.8681 355.5425 15.2787 354.8011 322.4898 83.8700 1.0359 341.4532 22.1897 359.0771 355.2391 60.5720 44.7765 6.9313 337.1832 354.1862 28.3146 275.7644 352.9829 17.3892 1.8910 357.4721 357.5907 359.0694 11.5259 356.1819 357.3661 350.8521 22.3154 359.5317 351.8253 1.1650 359.2481 19.0865 8.7287 358.5365 344.3798 337.3694 
-5.3760 88.6998 189.1833 2.1853 359.5222 177.1022 0.8809 359.2776 358.2062 359.2252 11.2420 358.2781 2.8024 348.5546 0.2206 355.7484 12.8763 0.4076 338.7296 358.5126 7.8219 300.7983 30.8480 355.5705 15.2651 354.7925 322.5050 83.9131 1.0263 341.4066 22.1676 359.0669 355.2519 60.4874 44.8634 7.0026 337.2161 354.1731 28.3775 275.7180 353.1442 17.7241 1.8442 357.4185 357.4615 359.0242 11.5555 356.3039 357.3975 350.8183 22.3275 359.4736 351.8078 1.2143 359.2589 19.0571 8.6982 358.5852 344.3730 337.3656 
-5.4473 88.7027 189.1633 2.1746 359.4741 177.1146 0.8382 359.2605 358.2279 359.2408 11.2375 358.2978 2.8124 348.4697 0.1758 355.7136 12.9729 0.3641 338.7006 358.5347 7.7660 300.7818 31.0648 355.6543 15.4250 354.7037 322.5721 83.9256 0.9490 341.6107 22.1483 359.0719 355.2387 60.4040 44.9086 7.0691 337.2533 354.1585 28.4056 275.6971 353.1589 17.7555 1.7899 357.3297 357.4141 359.0081 11.6487 356.3430 357.4310 350.7644 22.3298 359.4150 351.7890 1.2694 359.2760 19.0289 8.6696 358.6295 344.3592 337.3397 
-5.5207 88.7054 189.1355 2.1755 359.4379 177.1134 0.8180 359.2563 358.2325 359.2431 11.2214 358.3019 2.7538 348.4188 0.1061 355.7860 13.0249 0.2929 338.6843 358.5586 7.7077 300.7360 31.0027 355.7276 15.4065 354.7347 322.5643 84.1013 0.8856 341.6736 22.1468 359.0704 355.2203 60.3061 44.9329 7.1416 337.2329 354.1585 28.4260 275.8155 353.1456 17.9264 1.7511 357.3189 357.2824 358.9633 11.6318 356.4710 357.4827 350.7573 22.3393 359.3711 351.7913 1.3181 359.2883 18.9871 8.5784 358.6731 344.3395 337.3791 
-5.6023 88.7077 189.1136 2.1755 359.3815 177.1100 0.8090 359.2518 358.2332 359.2264 11.1687 358.3039 2.7354 348.3629 0.0727 355.8029 13.1288 0.2608 338.6872 358.5440 7.6955 300.6517 30.9041 355.7829 15.3946 354.7416 322.5602 84.1666 0.8621 341.6078 22.1544 359.0679 355.2386 60.2258 44.9218 7.1591 337.2260 354.1535 28.4647 275.9156 353.1219 17.9601 1.7060 357.2756 357.2200 358.9321 11.6404 356.4993 357.4987 350.7195 22.3937 359.3214 351.7599 1.3391 359.2908 18.9580 8.5272 358.7279 344.3007 337.4219 
-5.6900 88.7097 189.0864 2.1729 359.3344 177.0897 0.7802 359.2422 358.2556 359.2262 11.1449 358.3268 2.7032 348.2771 0.0478 355.8337 13.2685 0.2414 338.6758 358.5392 7.6983 300.6023 30.8532 355.8179 15.3304 354.7859 322.5933 84.3719 0.7865 341.5896 22.1453 359.0649 355.2506 60.1410 44.9734 7.2021 337.1780 354.1411 28.4723 276.0140 353.1064 17.9150 1.6516 357.2729 357.0504 358.8867 11.5989 356.6406 357.5069 350.6931 22.4422 359.2672 351.7373 1.3778 359.2948 18.9304 8.4812 358.7661 344.2816 337.4484 
-5.7829 88.7102 189.0629 2.1765 359.2809 177.0659 0.7628 359.2370 358.2834 359.2188 11.1171 358.3551 2.6755 348.2267 0.0119 355.8774 13.3307 0.2031 338.6728 358.5527 7.6728 300.5514 30.7498 355.8517 15.2943 354.8003 322.5752 84.2693 0.8020 341.4442 22.1388 359.0790 355.2405 60.0330 44.9914 7.2822 337.0769 354.0943 28.4926 276.3062 353.1518 17.5824 1.6012 357.2470 356.9610 358.8557 11.5820 356.7254 357.5328 350.6942 22.4702 359.2172 351.6973 1.4163 359.2896 18.9241 8.4708 358.8263 344.2692 337.4605 
